<?xml version="1.0" encoding="UTF-8" standalone="no"?>
<svg
   xmlns:dc="http://purl.org/dc/elements/1.1/"
   xmlns:cc="http://creativecommons.org/ns#"
   xmlns:rdf="http://www.w3.org/1999/02/22-rdf-syntax-ns#"
   xmlns:svg="http://www.w3.org/2000/svg"
   xmlns="http://www.w3.org/2000/svg"
   xmlns:sodipodi="http://sodipodi.sourceforge.net/DTD/sodipodi-0.dtd"
   xmlns:inkscape="http://www.inkscape.org/namespaces/inkscape"
   sodipodi:docname="circle-solid.svg"
   id="svg3725"
   version="1.1"
   viewBox="0 0 512 512"
   role="img"
   class="svg-inline--fa fa-circle fa-w-16"
   data-icon="circle"
   data-prefix="fas"
   focusable="false"
   aria-hidden="true"
   inkscape:version="0.92.5 (2060ec1f9f, 2020-04-08)">
  <metadata
     id="metadata3731">
    <rdf:RDF>
      <cc:Work
         rdf:about="">
        <dc:format>image/svg+xml</dc:format>
        <dc:type
           rdf:resource="http://purl.org/dc/dcmitype/StillImage" />
      </cc:Work>
    </rdf:RDF>
  </metadata>
  <defs
     id="defs3729" />
  <sodipodi:namedview
     pagecolor="#ffffff"
     bordercolor="#666666"
     borderopacity="1"
     objecttolerance="10"
     gridtolerance="10"
     guidetolerance="10"
     inkscape:pageopacity="0"
     inkscape:pageshadow="2"
     inkscape:window-width="1920"
     inkscape:window-height="1017"
     id="namedview3727"
     showgrid="false"
     inkscape:zoom="1.65625"
     inkscape:cx="157.88679"
     inkscape:cy="267.58731"
     inkscape:window-x="-8"
     inkscape:window-y="-8"
     inkscape:window-maximized="1"
     inkscape:current-layer="svg3725" />
  <path
     style="fill:#e9c353;opacity:1;fill-opacity:1"
     inkscape:connector-curvature="0"
     id="path3723"
     d="m 261.43396,6.1886792 c -137,0 -247.999998,111.0000008 -247.999998,248.0000008 0,137 110.999998,248 247.999998,248 137,0 248,-111 248,-248 0,-137 -111,-248.0000008 -248,-248.0000008 z" />
  <path
     inkscape:connector-curvature="0"
     id="path4582"
     d="M 241.19025,503.26114 C 132.8783,497.038 40.465311,419.55115 15.139066,313.72075 4.3767341,268.74837 6.3218176,222.31929 20.804985,178.47547 57.475243,67.466309 165.99193,-2.518758 282.47143,9.7203846 352.60696,17.089912 416.43207,54.52742 457.97449,112.66415 c 45.58892,63.79962 57.94944,146.91912 32.97287,221.72905 -28.09704,84.15635 -99.27472,147.04524 -186.0417,164.37676 -21.87827,4.37014 -41.61214,5.76114 -63.71541,4.49118 z"
     style="fill:#8c953c;fill-opacity:0;stroke-width:0.60377359;opacity:1" />
  <path
     inkscape:connector-curvature="0"
     id="path4584"
     d="M 241.19025,503.26114 C 132.8783,497.038 40.465311,419.55115 15.139066,313.72075 4.3767341,268.74837 6.3218176,222.31929 20.804985,178.47547 57.475243,67.466309 165.99193,-2.518758 282.47143,9.7203846 352.60696,17.089912 416.43207,54.52742 457.97449,112.66415 c 45.58892,63.79962 57.94944,146.91912 32.97287,221.72905 -28.09704,84.15635 -99.27472,147.04524 -186.0417,164.37676 -21.87827,4.37014 -41.61214,5.76114 -63.71541,4.49118 z"
     style="fill:#64d54a;fill-opacity:0;stroke-width:0.60377359;opacity:1" />
  <path
     inkscape:connector-curvature="0"
     id="path4586"
     d="M 241.19025,503.26114 C 132.8783,497.038 40.465311,419.55115 15.139066,313.72075 4.3767341,268.74837 6.3218176,222.31929 20.804985,178.47547 57.475243,67.466309 165.99193,-2.518758 282.47143,9.7203846 352.60696,17.089912 416.43207,54.52742 457.97449,112.66415 c 45.58892,63.79962 57.94944,146.91912 32.97287,221.72905 -28.09704,84.15635 -99.27472,147.04524 -186.0417,164.37676 -21.87827,4.37014 -41.61214,5.76114 -63.71541,4.49118 z"
     style="fill:#3cd5ac;fill-opacity:0;stroke-width:0.60377359;opacity:1" />
  <path
     inkscape:connector-curvature="0"
     id="path4588"
     d="M 241.19025,503.26114 C 132.8783,497.038 40.465311,419.55115 15.139066,313.72075 4.3767341,268.74837 6.3218176,222.31929 20.804985,178.47547 57.475243,67.466309 165.99193,-2.518758 282.47143,9.7203846 352.60696,17.089912 416.43207,54.52742 457.97449,112.66415 c 45.58892,63.79962 57.94944,146.91912 32.97287,221.72905 -28.09704,84.15635 -99.27472,147.04524 -186.0417,164.37676 -21.87827,4.37014 -41.61214,5.76114 -63.71541,4.49118 z"
     style="fill:#1d1b14;fill-opacity:0;stroke-width:0.60377359;opacity:1" />
  <path
     inkscape:connector-curvature="0"
     id="path4590"
     d="M 241.19025,503.26114 C 132.8783,497.038 40.465311,419.55115 15.139066,313.72075 4.3767341,268.74837 6.3218176,222.31929 20.804985,178.47547 57.475243,67.466309 165.99193,-2.518758 282.47143,9.7203846 352.60696,17.089912 416.43207,54.52742 457.97449,112.66415 c 45.58892,63.79962 57.94944,146.91912 32.97287,221.72905 -28.09704,84.15635 -99.27472,147.04524 -186.0417,164.37676 -21.87827,4.37014 -41.61214,5.76114 -63.71541,4.49118 z"
     style="fill:#f8faeb;fill-opacity:0;stroke-width:0.60377359;opacity:1" />
  <path
     inkscape:connector-curvature="0"
     id="path4592"
     d="M 241.19025,503.26114 C 132.8783,497.038 40.465311,419.55115 15.139066,313.72075 4.3767341,268.74837 6.3218176,222.31929 20.804985,178.47547 57.475243,67.466309 165.99193,-2.518758 282.47143,9.7203846 352.60696,17.089912 416.43207,54.52742 457.97449,112.66415 c 45.58892,63.79962 57.94944,146.91912 32.97287,221.72905 -28.09704,84.15635 -99.27472,147.04524 -186.0417,164.37676 -21.87827,4.37014 -41.61214,5.76114 -63.71541,4.49118 z"
     style="fill:#122110;fill-opacity:0;stroke-width:0.60377359;opacity:1" />
  <path
     inkscape:connector-curvature="0"
     id="path4594"
     d="M 241.19025,503.26114 C 132.8783,497.038 40.465311,419.55115 15.139066,313.72075 4.3767341,268.74837 6.3218176,222.31929 20.804985,178.47547 57.475243,67.466309 165.99193,-2.518758 282.47143,9.7203846 352.60696,17.089912 416.43207,54.52742 457.97449,112.66415 c 45.58892,63.79962 57.94944,146.91912 32.97287,221.72905 -28.09704,84.15635 -99.27472,147.04524 -186.0417,164.37676 -21.87827,4.37014 -41.61214,5.76114 -63.71541,4.49118 z"
     style="fill:#1e593a;fill-opacity:0;stroke-width:0.60377359;opacity:1" />
</svg>
